<svg xmlns="http://www.w3.org/2000/svg" width="38.972" height="55.823" viewBox="0 0 38.972 55.823">
  <g id="Group_3405" data-name="Group 3405" transform="translate(-131 -613.834)">
    <path id="Path_134" data-name="Path 134" d="M-203.062-143.918h0a19.452,19.452,0,0,0,2.323-11.2,19.592,19.592,0,0,0-17.2-17.545A19.491,19.491,0,0,0-239.63-153.3a19.384,19.384,0,0,0,2.406,9.382h0l.063.1c.176.315.362.625.555.929l14.9,24.953a1.987,1.987,0,0,0,3.419-.014l14.737-25.136c.136-.22.266-.445.393-.67Z" transform="translate(370.63 786.62)" fill="#003c57"/>
    <circle id="Ellipse_23" data-name="Ellipse 23" cx="11.926" cy="11.926" r="11.926" transform="translate(138.693 621.394)" fill="#c0d3e4"/>
  </g>
</svg>
